HIERARCHY
ROOT hip
{
  OFFSET 0 90.174 2.4664
  CHANNELS 6 Xposition Yposition Zposition Zrotation Xrotation Yrotation
  JOINT abdomen
  {
    OFFSET 0 -1.186 -1.5018
    CHANNELS 6 Xposition Yposition Zposition Zrotation Xrotation Yrotation
    JOINT abdomen2
    {
      OFFSET 0 9.964 0.2134
      CHANNELS 6 Xposition Yposition Zposition Zrotation Xrotation Yrotation
      JOINT chest
      {
        OFFSET 0 13.134 -3.2573
        CHANNELS 6 Xposition Yposition Zposition Zrotation Xrotation Yrotation
        JOINT neck
        {
          OFFSET 0 20.686 -1.6905
          CHANNELS 6 Xposition Yposition Zposition Zrotation Xrotation Yrotation
          JOINT head
          {
            OFFSET 0 7.238 -0.1237
            CHANNELS 6 Xposition Yposition Zposition Zrotation Xrotation Yrotation
            End Site
            {
              OFFSET 0 0 0
            }
          }
        }
        JOINT lCollar
        {
          OFFSET 1.7069 20.075 5.0056
          CHANNELS 6 Xposition Yposition Zposition Zrotation Xrotation Yrotation
          JOINT lShldr
          {
            OFFSET 13.6458 -0.047 -4.849
            CHANNELS 6 Xposition Yposition Zposition Zrotation Xrotation Yrotation
            JOINT lForeArm
            {
              OFFSET 28.3255 -0.9759 2.2888
              CHANNELS 6 Xposition Yposition Zposition Zrotation Xrotation Yrotation
              JOINT lHand
              {
                OFFSET 22.1583 -0.53 10.8316
                CHANNELS 6 Xposition Yposition Zposition Zrotation Xrotation Yrotation
                JOINT lThumb1
                {
                  OFFSET 0.786 0.112 2.5817
                  CHANNELS 6 Xposition Yposition Zposition Zrotation Xrotation Yrotation
                  JOINT lThumb2
                  {
                    OFFSET 0.3601 -0.878 4.2331
                    CHANNELS 6 Xposition Yposition Zposition Zrotation Xrotation Yrotation
                    JOINT lThumb2_End
                    {
                      OFFSET 1.8127 -1.216 2.2227
                      CHANNELS 6 Xposition Yposition Zposition Zrotation Xrotation Yrotation
                      End Site
                      {
                        OFFSET 0.0181 -0.0122 0.0222
                      }
                    }
                  }
                }
                JOINT lCarpal1
                {
                  OFFSET 0.9571 1.114 1.7695
                  CHANNELS 6 Xposition Yposition Zposition Zrotation Xrotation Yrotation
                  JOINT lIndex1
                  {
                    OFFSET 4.1246 0.487 4.1451
                    CHANNELS 6 Xposition Yposition Zposition Zrotation Xrotation Yrotation
                    JOINT lIndex2
                    {
                      OFFSET 3.4052 -1.454 2.7682
                      CHANNELS 6 Xposition Yposition Zposition Zrotation Xrotation Yrotation
                      JOINT lIndex2_End
                      {
                        OFFSET 1.4531 -1.795 1.2713
                        CHANNELS 6 Xposition Yposition Zposition Zrotation Xrotation Yrotation
                        End Site
                        {
                          OFFSET 0.0145 -0.0179 0.0127
                        }
                      }
                    }
                  }
                  JOINT lMid1
                  {
                    OFFSET 5.6954 0.21 2.1184
                    CHANNELS 6 Xposition Yposition Zposition Zrotation Xrotation Yrotation
                    JOINT lMid2
                    {
                      OFFSET 3.9766 -1.54 2.3863
                      CHANNELS 6 Xposition Yposition Zposition Zrotation Xrotation Yrotation
                      JOINT lMid2_End
                      {
                        OFFSET 1.4042 -1.926 1.125
                        CHANNELS 6 Xposition Yposition Zposition Zrotation Xrotation Yrotation
                        End Site
                        {
                          OFFSET 0.014 -0.0193 0.0113
                        }
                      }
                    }
                  }
                }
                JOINT lCarpal2
                {
                  OFFSET 2.0956 0.66 -0.3894
                  CHANNELS 6 Xposition Yposition Zposition Zrotation Xrotation Yrotation
                  JOINT lRing1
                  {
                    OFFSET 5.0395 -0.09 2.4971
                    CHANNELS 6 Xposition Yposition Zposition Zrotation Xrotation Yrotation
                    JOINT lRing2
                    {
                      OFFSET 3.7921 -1.552 1.4806
                      CHANNELS 6 Xposition Yposition Zposition Zrotation Xrotation Yrotation
                      JOINT lRing2_End
                      {
                        OFFSET 1.4655 -1.808 0.9609
                        CHANNELS 6 Xposition Yposition Zposition Zrotation Xrotation Yrotation
                        End Site
                        {
                          OFFSET 0.0147 -0.0181 0.0096
                        }
                      }
                    }
                  }
                  JOINT lPinky1
                  {
                    OFFSET 4.9141 -1.269 0.3591
                    CHANNELS 6 Xposition Yposition Zposition Zrotation Xrotation Yrotation
                    JOINT lPinky2
                    {
                      OFFSET 3.1477 -1.685 0.8462
                      CHANNELS 6 Xposition Yposition Zposition Zrotation Xrotation Yrotation
                      JOINT lPinky2_End
                      {
                        OFFSET 0.8055 -1.585 0.7955
                        CHANNELS 6 Xposition Yposition Zposition Zrotation Xrotation Yrotation
                        End Site
                        {
                          OFFSET 0.0081 -0.0158 0.008
                        }
                      }
                    }
                  }
                }
              }
            }
          }
        }
        JOINT rCollar
        {
          OFFSET -1.7069 20.075 5.0056
          CHANNELS 6 Xposition Yposition Zposition Zrotation Xrotation Yrotation
          JOINT rShldr
          {
            OFFSET -13.6458 -0.047 -4.849
            CHANNELS 6 Xposition Yposition Zposition Zrotation Xrotation Yrotation
            JOINT rForeArm
            {
              OFFSET -28.3255 -0.9759 2.2888
              CHANNELS 6 Xposition Yposition Zposition Zrotation Xrotation Yrotation
              JOINT rHand
              {
                OFFSET -22.1583 -0.53 10.8316
                CHANNELS 6 Xposition Yposition Zposition Zrotation Xrotation Yrotation
                JOINT rThumb1
                {
                  OFFSET -0.786 0.112 2.5817
                  CHANNELS 6 Xposition Yposition Zposition Zrotation Xrotation Yrotation
                  JOINT rThumb2
                  {
                    OFFSET -0.3601 -0.878 4.2331
                    CHANNELS 6 Xposition Yposition Zposition Zrotation Xrotation Yrotation
                    JOINT rThumb2_End
                    {
                      OFFSET -1.8127 -1.216 2.2227
                      CHANNELS 6 Xposition Yposition Zposition Zrotation Xrotation Yrotation
                      End Site
                      {
                        OFFSET -0.0181 -0.0122 0.0222
                      }
                    }
                  }
                }
                JOINT rCarpal1
                {
                  OFFSET -0.9571 1.114 1.7695
                  CHANNELS 6 Xposition Yposition Zposition Zrotation Xrotation Yrotation
                  JOINT rIndex1
                  {
                    OFFSET -4.1246 0.487 4.1451
                    CHANNELS 6 Xposition Yposition Zposition Zrotation Xrotation Yrotation
                    JOINT rIndex2
                    {
                      OFFSET -3.4052 -1.454 2.7682
                      CHANNELS 6 Xposition Yposition Zposition Zrotation Xrotation Yrotation
                      JOINT rIndex2_End
                      {
                        OFFSET -1.4531 -1.795 1.2713
                        CHANNELS 6 Xposition Yposition Zposition Zrotation Xrotation Yrotation
                        End Site
                        {
                          OFFSET -0.0145 -0.018 0.0127
                        }
                      }
                    }
                  }
                  JOINT rMid1
                  {
                    OFFSET -5.6954 0.21 2.1184
                    CHANNELS 6 Xposition Yposition Zposition Zrotation Xrotation Yrotation
                    JOINT rMid2
                    {
                      OFFSET -3.9766 -1.54 2.3863
                      CHANNELS 6 Xposition Yposition Zposition Zrotation Xrotation Yrotation
                      JOINT rMid2_End
                      {
                        OFFSET -1.4042 -1.926 1.125
                        CHANNELS 6 Xposition Yposition Zposition Zrotation Xrotation Yrotation
                        End Site
                        {
                          OFFSET -0.014 -0.0193 0.0113
                        }
                      }
                    }
                  }
                }
                JOINT rCarpal2
                {
                  OFFSET -2.0956 0.66 -0.3894
                  CHANNELS 6 Xposition Yposition Zposition Zrotation Xrotation Yrotation
                  JOINT rRing1
                  {
                    OFFSET -5.0395 -0.09 2.4971
                    CHANNELS 6 Xposition Yposition Zposition Zrotation Xrotation Yrotation
                    JOINT rRing2
                    {
                      OFFSET -3.7921 -1.552 1.4806
                      CHANNELS 6 Xposition Yposition Zposition Zrotation Xrotation Yrotation
                      JOINT rRing2_End
                      {
                        OFFSET -1.4655 -1.808 0.9609
                        CHANNELS 6 Xposition Yposition Zposition Zrotation Xrotation Yrotation
                        End Site
                        {
                          OFFSET -0.0147 -0.0181 0.0096
                        }
                      }
                    }
                  }
                  JOINT rPinky1
                  {
                    OFFSET -4.9141 -1.269 0.3592
                    CHANNELS 6 Xposition Yposition Zposition Zrotation Xrotation Yrotation
                    JOINT rPinky2
                    {
                      OFFSET -3.1477 -1.685 0.8462
                      CHANNELS 6 Xposition Yposition Zposition Zrotation Xrotation Yrotation
                      JOINT rPinky2_End
                      {
                        OFFSET -0.8055 -1.585 0.7955
                        CHANNELS 6 Xposition Yposition Zposition Zrotation Xrotation Yrotation
                        End Site
                        {
                          OFFSET -0.0081 -0.0158 0.008
                        }
                      }
                    }
                  }
                }
              }
            }
          }
        }
      }
    }
  }
  JOINT lThigh
  {
    OFFSET 8.367 -8.2066 0.5982
    CHANNELS 6 Xposition Yposition Zposition Zrotation Xrotation Yrotation
    JOINT lShin
    {
      OFFSET 2.1923 -43.463 -0.4932
      CHANNELS 6 Xposition Yposition Zposition Zrotation Xrotation Yrotation
      JOINT lFoot
      {
        OFFSET 0.7333 -45.8593 -2.6451
        CHANNELS 6 Xposition Yposition Zposition Zrotation Xrotation Yrotation
        End Site
        {
          OFFSET 2.6618 -4.2699 12.3931
        }
      }
    }
  }
  JOINT rThigh
  {
    OFFSET -8.367 -8.2066 0.5982
    CHANNELS 6 Xposition Yposition Zposition Zrotation Xrotation Yrotation
    JOINT rShin
    {
      OFFSET -2.1923 -43.463 -0.4931
      CHANNELS 6 Xposition Yposition Zposition Zrotation Xrotation Yrotation
      JOINT rFoot
      {
        OFFSET -0.7333 -45.8593 -2.6451
        CHANNELS 6 Xposition Yposition Zposition Zrotation Xrotation Yrotation
        End Site
        {
          OFFSET -2.6618 -4.2699 12.3931
        }
      }
    }
  }
}
MOTION
Frames:	4
Frame Time:	0.0333333
-0.0010584 1.83822 -8.87128 -0 -89.0022 -0 0 -1.186 -1.5018 -0.0925759 2.20045 -0.494392 -6.93889e-018 9.964 0.2134 -0.166315 4.40162 -0.986316 -1.38778e-017 13.134 -3.2573 -0.166315 4.40159 -0.986316 0 20.686 -1.6905 5.46775 -7.22627 1.34263 0 7.238 -0.1237 5.9953 -4.12414 6.28663 1.7069 20.075 5.0056 3.58587 -9.79817 -1.93564 13.6458 -0.047 -4.849 -5.69597 -20.7702 -27.8633 28.3255 -0.9759 2.2888 -13.5216 -34.0287 -13.516 22.1583 -0.53 10.8316 -54.0517 -11.7937 -20.2019 0.786 0.112 2.5817 -3.85771e-006 8.76551e-007 -1.36827e-006 0.3601 -0.878 4.2331 3.7814e-006 2.5329e-007 2.6263e-006 1.8127 -1.216 2.2227 -3.85771e-006 8.76551e-007 -1.36827e-006 0.9571 1.114 1.7695 -0 0 1.59028e-015 4.1246 0.487 4.1451 -3.85771e-006 8.76551e-007 -1.36827e-006 3.4052 -1.454 2.7682 3.7814e-006 2.5329e-007 2.6263e-006 1.4531 -1.795 1.2713 -3.85771e-006 8.76551e-007 -1.36827e-006 5.6954 0.21 2.1184 -3.85771e-006 8.76551e-007 -1.36827e-006 3.9766 -1.54 2.3863 3.7814e-006 2.5329e-007 2.6263e-006 1.4042 -1.926 1.125 -3.85771e-006 8.76551e-007 -1.36827e-006 2.0956 0.66 -0.3894 -0 0 1.59028e-015 5.0395 -0.09 2.4971 -3.85771e-006 8.76551e-007 -1.36827e-006 3.7921 -1.552 1.4806 3.7814e-006 2.5329e-007 2.6263e-006 1.4655 -1.808 0.9609 -3.85771e-006 8.76551e-007 -1.36827e-006 4.9141 -1.269 0.3591 -3.85771e-006 8.76551e-007 -1.36827e-006 3.1477 -1.685 0.8462 3.7814e-006 2.5329e-007 2.6263e-006 0.8055 -1.585 0.7955 -3.85771e-006 8.76551e-007 -1.36827e-006 -1.7069 20.075 5.0056 -3.41694 -9.75859 4.24726 -13.6458 -0.047 -4.849 6.05955 -20.4443 31.719 -28.3255 -0.9759 2.2888 12.7819 -30.4031 15.4368 -22.1583 -0.53 10.8316 30.0576 -10.6471 15.6354 -0.786 0.112 2.5817 5.37529e-007 2.57974e-006 -2.05331e-006 -0.3601 -0.878 4.2331 -2.68764e-007 -1.28987e-006 1.02666e-006 -1.8127 -1.216 2.2227 2.68764e-007 1.28987e-006 -1.02666e-006 -0.9571 1.114 1.7695 3.77691e-015 -3.18055e-015 -1.78906e-015 -4.1246 0.487 4.1451 5.37529e-007 2.57974e-006 -2.05331e-006 -3.4052 -1.454 2.7682 -2.68764e-007 -1.28987e-006 1.02666e-006 -1.4531 -1.795 1.2713 2.68764e-007 1.28987e-006 -1.02666e-006 -5.6954 0.21 2.1184 5.37529e-007 2.57974e-006 -2.05331e-006 -3.9766 -1.54 2.3863 -2.68764e-007 -1.28987e-006 1.02666e-006 -1.4042 -1.926 1.125 2.68764e-007 1.28987e-006 -1.02666e-006 -2.0956 0.66 -0.3894 3.77691e-015 -3.18055e-015 -1.78906e-015 -5.0395 -0.09 2.4971 5.37529e-007 2.57974e-006 -2.05331e-006 -3.7921 -1.552 1.4806 -2.68764e-007 -1.28987e-006 1.02666e-006 -1.4655 -1.808 0.9609 2.68764e-007 1.28987e-006 -1.02666e-006 -4.9141 -1.269 0.3592 5.37529e-007 2.57974e-006 -2.05331e-006 -3.1477 -1.685 0.8462 -2.68764e-007 -1.28987e-006 1.02666e-006 -0.8055 -1.585 0.7955 2.68764e-007 1.28987e-006 -1.02666e-006 8.367 -8.2066 0.5982 22.1517 -58.4156 31.0947 2.1923 -43.463 -0.4932 171.23 51.7626 -167.044 0.7333 -45.8593 -2.6451 13.837 15.5796 0.203607 -8.367 -8.2066 0.5982 -17.4481 -47.5699 -24.4004 -2.1923 -43.463 -0.4931 -170.158 66.7123 167.294 -0.7333 -45.8593 -2.6451 -13.8897 13.6446 1.40119 
-0.000300695 1.83592 -8.83591 -0 -89.0022 -0 0 -1.186 -1.5018 -0.100105 2.15638 -0.485389 3.46945e-018 9.964 0.2134 -0.182105 4.31353 -0.968035 2.77556e-017 13.134 -3.2573 -0.182105 4.31352 -0.968034 -5.55112e-017 20.686 -1.6905 5.0069 -6.15328 1.18483 0 7.238 -0.1237 5.5398 -2.09064 5.52802 1.7069 20.075 5.0056 3.07095 -9.5892 -2.44748 13.6458 -0.047 -4.849 -6.37497 -20.5394 -29.4092 28.3255 -0.9759 2.2888 -16.9744 -33.0912 -16.5741 22.1583 -0.53 10.8316 -53.534 -10.4613 -20.1458 0.786 0.112 2.5817 -3.97569e-016 -1.59028e-015 3.18055e-015 0.3601 -0.878 4.2331 -1.19271e-015 -1.59028e-015 3.18055e-015 1.8127 -1.216 2.2227 7.95139e-016 3.18055e-015 3.18055e-015 0.9571 1.114 1.7695 1.19271e-015 0 3.18055e-015 4.1246 0.487 4.1451 -2.78299e-015 -1.59028e-015 7.95139e-015 3.4052 -1.454 2.7682 -2.38542e-015 1.59028e-015 1.59028e-015 1.4531 -1.795 1.2713 2.38542e-015 1.59028e-015 -1.59028e-015 5.6954 0.21 2.1184 -2.78299e-015 -1.59028e-015 7.95139e-015 3.9766 -1.54 2.3863 -2.38542e-015 1.59028e-015 1.59028e-015 1.4042 -1.926 1.125 2.38542e-015 1.59028e-015 -1.59028e-015 2.0956 0.66 -0.3894 1.19271e-015 0 3.18055e-015 5.0395 -0.09 2.4971 -2.78299e-015 -1.59028e-015 7.95139e-015 3.7921 -1.552 1.4806 -2.38542e-015 1.59028e-015 1.59028e-015 1.4655 -1.808 0.9609 2.38542e-015 1.59028e-015 -1.59028e-015 4.9141 -1.269 0.3591 -2.78299e-015 -1.59028e-015 7.95139e-015 3.1477 -1.685 0.8462 -2.38542e-015 1.59028e-015 1.59028e-015 0.8055 -1.585 0.7955 2.38542e-015 1.59028e-015 -1.59028e-015 -1.7069 20.075 5.0056 -2.91968 -9.53238 4.55213 -13.6458 -0.047 -4.849 6.71068 -20.2079 33.0085 -28.3255 -0.9759 2.2888 15.8695 -29.6907 18.015 -22.1583 -0.53 10.8316 31.5051 -9.30875 16.013 -0.786 0.112 2.5817 -9.93923e-016 -6.36111e-015 -3.97569e-016 -0.3601 -0.878 4.2331 5.96354e-016 -3.18055e-015 -1.59028e-015 -1.8127 -1.216 2.2227 -1.19271e-015 -3.18055e-015 -3.97569e-016 -0.9571 1.114 1.7695 -9.93923e-016 -6.36111e-015 -3.97569e-016 -4.1246 0.487 4.1451 -3.77691e-015 -3.18055e-015 2.38542e-015 -3.4052 -1.454 2.7682 9.93923e-016 -6.36111e-015 -7.95139e-016 -1.4531 -1.795 1.2713 1.98785e-016 -3.18055e-015 -1.59028e-015 -5.6954 0.21 2.1184 -3.77691e-015 -3.18055e-015 2.38542e-015 -3.9766 -1.54 2.3863 9.93923e-016 -6.36111e-015 -7.95139e-016 -1.4042 -1.926 1.125 1.98785e-016 -3.18055e-015 -1.59028e-015 -2.0956 0.66 -0.3894 -9.93923e-016 -6.36111e-015 -3.97569e-016 -5.0395 -0.09 2.4971 -3.77691e-015 -3.18055e-015 2.38542e-015 -3.7921 -1.552 1.4806 9.93923e-016 -6.36111e-015 -7.95139e-016 -1.4655 -1.808 0.9609 1.98785e-016 -3.18055e-015 -1.59028e-015 -4.9141 -1.269 0.3592 -3.77691e-015 -3.18055e-015 2.38542e-015 -3.1477 -1.685 0.8462 9.93923e-016 -6.36111e-015 -7.95139e-016 -0.8055 -1.585 0.7955 1.98785e-016 -3.18055e-015 -1.59028e-015 8.367 -8.2066 0.5982 21.2894 -58.6077 30.2123 2.1923 -43.463 -0.4932 171.228 51.762 -167.021 0.7333 -45.8593 -2.6451 13.3079 15.601 0.501173 -8.367 -8.2066 0.5982 -16.7749 -47.7291 -23.644 -2.1923 -43.463 -0.4931 -170.156 66.712 167.277 -0.7333 -45.8593 -2.6451 -13.3705 13.6823 1.06144 
0.000456545 1.83362 -8.80054 -0 -89.0022 -0 0 -1.186 -1.5018 -0.107559 2.11233 -0.476362 -5.20417e-018 9.964 0.2134 -0.197727 4.22549 -0.949718 0 13.134 -3.2573 -0.197728 4.22548 -0.949718 -5.55112e-017 20.686 -1.6905 4.54975 -5.07991 1.03602 4.44089e-016 7.238 -0.1237 5.11299 -0.0592892 4.78867 1.7069 20.075 5.0056 2.55833 -9.37585 -2.95703 13.6458 -0.047 -4.849 -7.04582 -20.2917 -30.9493 28.3255 -0.9759 2.2888 -20.1055 -31.6697 -19.3087 22.1583 -0.53 10.8316 -53.0199 -9.12871 -20.1022 0.786 0.112 2.5817 -1.98785e-015 0 -4.77083e-015 0.3601 -0.878 4.2331 -8.2983e-008 1.01091e-006 1.35189e-006 1.8127 -1.216 2.2227 -1.19271e-015 3.18055e-015 -4.77083e-015 0.9571 1.114 1.7695 -1.19271e-015 1.59028e-015 -1.59028e-015 4.1246 0.487 4.1451 -2.78299e-015 -1.59028e-015 7.95139e-015 3.4052 -1.454 2.7682 -8.2983e-008 1.01091e-006 1.35189e-006 1.4531 -1.795 1.2713 1.59028e-015 1.11319e-014 1.59028e-015 5.6954 0.21 2.1184 -2.78299e-015 -1.59028e-015 7.95139e-015 3.9766 -1.54 2.3863 -8.2983e-008 1.01091e-006 1.35189e-006 1.4042 -1.926 1.125 1.59028e-015 1.11319e-014 1.59028e-015 2.0956 0.66 -0.3894 -1.19271e-015 1.59028e-015 -1.59028e-015 5.0395 -0.09 2.4971 -2.78299e-015 -1.59028e-015 7.95139e-015 3.7921 -1.552 1.4806 -8.2983e-008 1.01091e-006 1.35189e-006 1.4655 -1.808 0.9609 1.59028e-015 1.11319e-014 1.59028e-015 4.9141 -1.269 0.3591 -2.78299e-015 -1.59028e-015 7.95139e-015 3.1477 -1.685 0.8462 -8.2983e-008 1.01091e-006 1.35189e-006 0.8055 -1.585 0.7955 1.59028e-015 1.11319e-014 1.59028e-015 -1.7069 20.075 5.0056 -2.42399 -9.30369 4.85481 -13.6458 -0.047 -4.849 7.35479 -19.958 34.2927 -28.3255 -0.9759 2.2888 18.8898 -28.8622 20.5245 -22.1583 -0.53 10.8316 33.0196 -8.19939 16.5967 -0.786 0.112 2.5817 0 0 -0 -0.3601 -0.878 4.2331 3.97569e-016 0 -0 -1.8127 -1.216 2.2227 3.97569e-016 3.18055e-015 -0 -0.9571 1.114 1.7695 3.97569e-016 3.18055e-015 -7.95139e-016 -4.1246 0.487 4.1451 -2.38542e-015 -3.18055e-015 5.56597e-015 -3.4052 -1.454 2.7682 3.97569e-016 -3.18055e-015 7.95139e-016 -1.4531 -1.795 1.2713 7.95139e-016 -3.18055e-015 7.95139e-016 -5.6954 0.21 2.1184 -2.38542e-015 -3.18055e-015 5.56597e-015 -3.9766 -1.54 2.3863 3.97569e-016 -3.18055e-015 7.95139e-016 -1.4042 -1.926 1.125 7.95139e-016 -3.18055e-015 7.95139e-016 -2.0956 0.66 -0.3894 3.97569e-016 3.18055e-015 -7.95139e-016 -5.0395 -0.09 2.4971 -2.38542e-015 -3.18055e-015 5.56597e-015 -3.7921 -1.552 1.4806 3.97569e-016 -3.18055e-015 7.95139e-016 -1.4655 -1.808 0.9609 7.95139e-016 -3.18055e-015 7.95139e-016 -4.9141 -1.269 0.3592 -2.38542e-015 -3.18055e-015 5.56597e-015 -3.1477 -1.685 0.8462 3.97569e-016 -3.18055e-015 7.95139e-016 -0.8055 -1.585 0.7955 7.95139e-016 -3.18055e-015 7.95139e-016 8.367 -8.2066 0.5982 20.4168 -58.7929 29.3197 2.1923 -43.463 -0.4932 171.226 51.7614 -166.999 0.7333 -45.8593 -2.6451 12.7786 15.6199 0.798991 -8.367 -8.2066 0.5982 -16.0953 -47.8835 -22.8815 -2.1923 -43.463 -0.4931 -170.155 66.7108 167.26 -0.7333 -45.8593 -2.6451 -12.851 13.7171 0.721302 
0.00120989 1.83133 -8.76516 -0 -89.0022 -0 0 -1.186 -1.5018 -0.114931 2.06826 -0.467294 3.46945e-018 9.964 0.2134 -0.213175 4.13741 -0.931344 -1.38778e-017 13.134 -3.2573 -0.213176 4.13743 -0.931344 -1.66533e-016 20.686 -1.6905 4.09643 -4.00473 0.896088 0 7.238 -0.1237 4.73022 1.9663 4.04975 1.7069 20.075 5.0056 2.04803 -9.15796 -3.46424 13.6458 -0.047 -4.849 -7.70772 -20.0274 -32.4824 28.3255 -0.9759 2.2888 -23.1334 -30.1436 -21.9301 22.1583 -0.53 10.8316 -52.5089 -7.7969 -20.0709 0.786 0.112 2.5817 -1.19271e-015 0 -1.59028e-015 0.3601 -0.878 4.2331 1.98785e-015 3.18055e-015 -0 1.8127 -1.216 2.2227 -3.57812e-015 3.18055e-015 1.59028e-015 0.9571 1.114 1.7695 1.98785e-015 0 -0 4.1246 0.487 4.1451 1.19271e-015 0 1.59028e-015 3.4052 -1.454 2.7682 -5.56597e-015 -1.59028e-015 -0 1.4531 -1.795 1.2713 7.95139e-016 3.18055e-015 -0 5.6954 0.21 2.1184 1.19271e-015 0 1.59028e-015 3.9766 -1.54 2.3863 -5.56597e-015 -1.59028e-015 -0 1.4042 -1.926 1.125 7.95139e-016 3.18055e-015 -0 2.0956 0.66 -0.3894 1.98785e-015 0 -0 5.0395 -0.09 2.4971 1.19271e-015 0 1.59028e-015 3.7921 -1.552 1.4806 -5.56597e-015 -1.59028e-015 -0 1.4655 -1.808 0.9609 7.95139e-016 3.18055e-015 -0 4.9141 -1.269 0.3591 1.19271e-015 0 1.59028e-015 3.1477 -1.685 0.8462 -5.56597e-015 -1.59028e-015 -0 0.8055 -1.585 0.7955 7.95139e-016 3.18055e-015 -0 -1.7069 20.075 5.0056 -1.92991 -9.07238 5.15522 -13.6458 -0.047 -4.849 7.99142 -19.6947 35.5711 -28.3255 -0.9759 2.2888 21.8542 -27.9592 22.9836 -22.1583 -0.53 10.8316 34.5168 -7.05495 17.1325 -0.786 0.112 2.5817 -2.46137e-007 -1.10439e-006 1.23013e-006 -0.3601 -0.878 4.2331 3.21537e-006 -9.0733e-007 4.02123e-006 -1.8127 -1.216 2.2227 -3.95378e-006 -2.40584e-006 -3.3084e-007 -0.9571 1.114 1.7695 -7.95139e-016 3.18055e-015 7.95139e-016 -4.1246 0.487 4.1451 -2.46137e-007 -1.10439e-006 1.23013e-006 -3.4052 -1.454 2.7682 3.21537e-006 -9.0733e-007 4.02123e-006 -1.4531 -1.795 1.2713 -3.95378e-006 -2.40584e-006 -3.3084e-007 -5.6954 0.21 2.1184 -2.46137e-007 -1.10439e-006 1.23013e-006 -3.9766 -1.54 2.3863 3.21537e-006 -9.0733e-007 4.02123e-006 -1.4042 -1.926 1.125 -3.95378e-006 -2.40584e-006 -3.3084e-007 -2.0956 0.66 -0.3894 -7.95139e-016 3.18055e-015 7.95139e-016 -5.0395 -0.09 2.4971 -2.46137e-007 -1.10439e-006 1.23013e-006 -3.7921 -1.552 1.4806 3.21537e-006 -9.0733e-007 4.02123e-006 -1.4655 -1.808 0.9609 -3.95378e-006 -2.40584e-006 -3.3084e-007 -4.9141 -1.269 0.3592 -2.46137e-007 -1.10439e-006 1.23013e-006 -3.1477 -1.685 0.8462 3.21537e-006 -9.0733e-007 4.02123e-006 -0.8055 -1.585 0.7955 -3.95378e-006 -2.40584e-006 -3.3084e-007 8.367 -8.2066 0.5982 19.5343 -58.9708 28.417 2.1923 -43.463 -0.4932 171.225 51.7608 -166.977 0.7333 -45.8593 -2.6451 12.2491 15.6364 1.09698 -8.367 -8.2066 0.5982 -15.4134 -48.0293 -22.1161 -2.1923 -43.463 -0.4931 -170.152 66.7111 167.243 -0.7333 -45.8593 -2.6451 -12.3312 13.7488 0.380773 
